:SAMPLES-PER-SECOND 30
:FULLY-SPECIFIED
:DEGREES
313
root  -9.909333207 35.85333336 11.73011074 50.33999634 -76.58399963 -46.67401123
lowerback  18.4029007 9.045280457 -2.429339886
upperback  7.471610069 10.76480007 -2.355560064
thorax  -2.079750061 5.109670162 -3.253400087
lowerneck  3.029900074 9.148460388 -3.88725996
upperneck  30.62050056 8.059160233 15.0298996
head  8.035980225 4.264629841 6.157869816
lclavicle  0 -9.442270133e-015 7.951389973e-016
lhumerus  5.954639912 -33.95249939 89.07420349
lradius  8.140737523e-032 -3.436004651e-031 103.3290024
lwrist  0 1.059337512e-030 62.27939987
lhand  -1.496451383e-031 -27.76390076 20.11240005
lfingers  90 7.125020027 -90
lthumb  89.89689403 5.08795885 91.16245106
rclavicle  0 -9.442270133e-015 7.951389973e-016
rhumerus  1.942199945 13.66819954 -90.97059631
rradius  1.172437334e-031 3.330800915e-031 70.60800171
rwrist  3.531125038e-031 3.531125038e-031 -66.72640228
rhand  -7.920061211e-032 -33.2840004 9.303460121
rfingers  -90 -7.125020027 -90
rthumb  -92.93752616 -24.25625642 -97.11982154
rfemur  -4.963389874 13.54129982 4.617819786
rtibia  -0 0 56.0102005
rfoot  -6.662272924e-032 -6.391789913 2.278569937
rtoes  5.373923086 19.29304026 -105.8922705
lfemur  -53.65269852 1.135630012 0.8188350201
ltibia  -0 0 65.40370178
lfoot  8.977201583e-032 -10.46720028 -6.564099789
ltoes  -4.250644065 -19.5611806 -102.515957
314
root  -9.85586662 35.94688956 11.70448919 47.63000488 -76.62799835 -44.03601074
lowerback  18.59280014 9.245019913 -2.353699923
upperback  7.533880234 11.03030014 -2.262830019
thorax  -2.104490042 5.240210056 -3.273370028
lowerneck  3.144040108 9.028880119 -3.803819895
upperneck  30.14069939 7.94701004 15.1239996
head  7.859879971 4.238629818 6.135489941
lclavicle  0 -9.442270133e-015 7.951389973e-016
lhumerus  4.58781004 -34.45230103 89.50650024
lradius  8.147330405e-032 -3.435848383e-031 103.3399963
lwrist  -7.062250077e-031 1.059337512e-030 62.10290146
lhand  -1.496451383e-031 -27.76390076 20.11240005
lfingers  90 7.125020027 -90
lthumb  89.89689403 5.08795885 91.16245106
rclavicle  0 -9.442270133e-015 7.951389973e-016
rhumerus  6.909039974 14.0067997 -90.91210175
rradius  1.104199019e-031 3.354040632e-031 71.77770233
rwrist  3.531125038e-031 7.062250077e-031 -67.70980072
rhand  -7.920061211e-032 -33.2840004 9.303460121
rfingers  -90 -7.125020027 -90
rthumb  -92.93752616 -24.25625642 -97.11982154
rfemur  -5.728750229 11.35239983 4.969890118
rtibia  -0 0 57.32649994
rfoot  -4.429837082e-032 -4.860630035 3.680170059
rtoes  5.373923086 19.29304026 -105.8922705
lfemur  -53.47669983 1.496219993 -0.01996090077
ltibia  -0 0 64.74690247
lfoot  8.950495725e-032 -9.497380257 -7.066619873
ltoes  -4.250644065 -19.5611806 -102.515957
315
root  -9.796044207 36.07400008 11.67391079 45.33300781 -76.60500336 -41.54299927
lowerback  18.37619972 9.478639603 -2.352530003
upperback  7.64413023 11.36240005 -2.065799952
thorax  -1.905660033 5.406579971 -3.091300011
lowerneck  3.143840075 8.801870346 -3.815609932
upperneck  29.68930054 7.730480194 15.06970024
head  7.729559898 4.14632988 6.086369991
lclavicle  0 -9.442270133e-015 7.951389973e-016
lhumerus  3.652220011 -34.8730011 89.85189819
lradius  8.097553841e-032 -3.437024913e-031 103.2570038
lwrist  -7.062250077e-031 -0 61.90739822
lhand  -1.496451383e-031 -27.76390076 20.11240005
lfingers  90 7.125020027 -90
lthumb  89.89689403 5.08795885 91.16245106
rclavicle  0 -9.442270133e-015 7.951389973e-016
rhumerus  11.66930008 14.2166996 -90.55709839
rradius  1.029341639e-031 3.377765508e-031 73.05190277
rwrist  3.531125038e-031 7.062250077e-031 -68.4885025
rhand  -7.920061211e-032 -33.2840004 9.303460121
rfingers  -90 -7.125020027 -90
rthumb  -92.93752616 -24.25625642 -97.11982154
rfemur  -6.736529827 9.09428978 5.405769825
rtibia  -0 0 58.18569946
rfoot  -4.420759049e-032 -3.190639973 4.914899826
rtoes  5.373923086 19.29304026 -105.8922705
lfemur  -53.51639938 1.948140025 -0.8342220187
ltibia  -0 0 63.92399979
lfoot  -0 -8.58506012 -7.320590019
ltoes  -4.250644065 -19.5611806 -102.515957
316
root  -9.732910967 36.22844426 11.63453305 41.45001221 -76.93800354 -37.42300415
lowerback  18.16790009 9.881449699 -3.02602005
upperback  7.78358984 11.79409981 -1.890859962
thorax  -1.804800034 5.603579998 -2.604959965
lowerneck  3.257879972 8.486599922 -3.761610031
upperneck  29.23329926 7.409699917 14.90110016
head  7.60051012 3.998239994 5.981060028
lclavicle  0 -9.442270133e-015 7.951389973e-016
lhumerus  2.815809965 -35.32690048 90.31829834
lradius  8.014747526e-032 -3.438965289e-031 103.1190033
lwrist  0 7.062250077e-031 61.43349838
lhand  -1.496451383e-031 -27.76390076 20.11240005
lfingers  90 7.125020027 -90
lthumb  89.89689403 5.08795885 91.16245106
rclavicle  0 -9.442270133e-015 7.951389973e-016
rhumerus  15.79959965 13.92099953 -90.2641983
rradius  9.656888966e-032 3.396511297e-031 74.12860107
rwrist  3.531125038e-031 7.062250077e-031 -69.01529694
rhand  -7.920061211e-032 -33.2840004 9.303460121
rfingers  -90 -7.125020027 -90
rthumb  -92.93752616 -24.25625642 -97.11982154
rfemur  -7.642879963 7.005119801 5.30783987
rtibia  -0 0 58.52519989
rfoot  -4.415195873e-032 -1.384829998 5.911349773
rtoes  5.373923086 19.29304026 -105.8922705
lfemur  -53.31819916 2.18659997 -2.164089918
ltibia  -0 0 62.8932991
lfoot  -0 -8.049119949 -7.579569817
ltoes  -4.250644065 -19.5611806 -102.515957
317
root  -9.662999882 36.39800004 11.59255561 34.92300415 -77.48200226 -30.7210083
lowerback  18.14629936 10.37069988 -4.298920155
upperback  7.956679821 12.21630001 -1.793550014
thorax  -1.872699976 5.776659966 -1.926419973
lowerneck  3.567440033 8.136650085 -3.912990093
upperneck  28.67239952 7.001719952 14.97869968
head  7.383969784 3.799449921 5.976369858
lclavicle  0 -9.442270133e-015 7.951389973e-016
lhumerus  1.884039998 -35.85440063 91.02519989
lradius  7.942102655e-032 -3.440650243e-031 102.9980011
lwrist  -1.059337512e-030 7.062250077e-031 60.8553009
lhand  -1.496451383e-031 -27.76390076 20.11240005
lfingers  90 7.125020027 -90
lthumb  89.89689403 5.08795885 91.16245106
rclavicle  0 -9.442270133e-015 7.951389973e-016
rhumerus  19.75589943 13.60210037 -90.00309753
rradius  9.234497164e-032 3.408237764e-031 74.83989716
rwrist  3.531125038e-031 1.059337512e-030 -69.94789886
rhand  -7.920061211e-032 -33.2840004 9.303460121
rfingers  -90 -7.125020027 -90
rthumb  -92.93752616 -24.25625642 -97.11982154
rfemur  -8.221400261 5.10781002 4.60281992
rtibia  -0 0 58.3973999
rfoot  -4.41466603e-032 -1.062980056 4.5552001
rtoes  5.373923086 19.29304026 -105.8922705
lfemur  -52.8445015 2.103689909 -4.057199955
ltibia  -0 0 61.66730118
lfoot  -0 -7.352049828 -7.994249821
ltoes  -4.250644065 -19.5611806 -102.515957
